<svg width="400" height="400" viewBox="0 0 400 400" fill="none" xmlns="http://www.w3.org/2000/svg"><rect width="400" height="400" fill="#020617"/><path d="M120 129.6C134.8 129.6 147.733 132.533 158.8 138.4C169.867 144.267 178.4 152.533 184.4 163.2C190.533 173.733 193.6 185.933 193.6 199.8C193.6 213.533 190.533 225.733 184.4 236.4C178.4 247.067 169.8 255.333 158.6 261.2C147.533 267.067 134.667 270 120 270H67.4V129.6H120ZM117.8 240.4C130.733 240.4 140.8 236.867 148 229.8C155.2 222.733 158.8 212.733 158.8 199.8C158.8 186.867 155.2 176.8 148 169.6C140.8 162.4 130.733 158.8 117.8 158.8H101.6V240.4H117.8ZM265.313 129.6C280.113 129.6 293.046 132.533 304.113 138.4C315.179 144.267 323.713 152.533 329.713 163.2C335.846 173.733 338.913 185.933 338.913 199.8C338.913 213.533 335.846 225.733 329.713 236.4C323.713 247.067 315.113 255.333 303.913 261.2C292.846 267.067 279.979 270 265.313 270H212.713V129.6H265.313ZM263.113 240.4C276.046 240.4 286.113 236.867 293.313 229.8C300.513 222.733 304.113 212.733 304.113 199.8C304.113 186.867 300.513 176.8 293.313 169.6C286.113 162.4 276.046 158.8 263.113 158.8H246.913V240.4H263.113Z" fill="#F8FAFC"/></svg>